# xmcd
#
# Track frame offsets: 
#        150
#        14912
#        30897
#        45558
#        60799
#        74807
#        88779
#        107359
#        120057
#        142412
#        161246
#        177795
#
# Disc length: 2689 seconds
#
# Revision: 1
# Processed by: cddbd v1.5.2PL0 Copyright (c) Steve Scherf et al.
# Submitted via: ExactAudioCopyFreeDBPlugin 1.0
#
DISCID=9c0a7f0c
DTITLE=Various Artist - 2014 - A Blues Tribute To Creedence Clearwate
DTITLE=r Revival
DYEAR=2014
DGENRE=Blues
TTITLE0=Mike Zito and Sonny Landreth - Fortunate Son
TTITLE1=The Mynabirds - Bad Moon Rising
TTITLE2=Blitzen Trapper - Proud Mary
TTITLE3=Spirit Family Reunion - Down On The Corner
TTITLE4=Dead Man Winter - Have You Ever Seen The Rain
TTITLE5=Leroux - Looking Out My Back Door
TTITLE6=Duke Robillard - Who'll Stop The Rain
TTITLE7=South Memphis String Band - Up Around The Bend
TTITLE8=Will Wilde -Susie Q
TTITLE9=Smokin' Joe Kubek and Bnois King - Run Through The Jungle
TTITLE10=Kirk Fletcher - Green River
TTITLE11=Trampled Under Foot - Born On The Bayou
EXTD=
EXTT0=
EXTT1=
EXTT2=
EXTT3=
EXTT4=
EXTT5=
EXTT6=
EXTT7=
EXTT8=
EXTT9=
EXTT10=
EXTT11=
PLAYORDER=
